<svg viewBox="0 0 500 500" xmlns="http://www.w3.org/2000/svg" xmlns:xlink="http://www.w3.org/1999/xlink" width="100%" id="blobSvg">
  <defs>
    <pattern id="pattern" x="0" y="0" width="40" height="40" patternUnits="userSpaceOnUse" fill="#d1d8e0">
      <path d="M0 38.59l2.83-2.83 1.41 1.41L1.41 40H0v-1.41zM0 1.4l2.83 2.83 1.41-1.41L1.41 0H0v1.41zM38.59 40l-2.83-2.83 1.41-1.41L40 38.59V40h-1.41zM40 1.41l-2.83 2.83-1.41-1.41L38.59 0H40v1.41zM20 18.6l2.83-2.83 1.41 1.41L21.41 20l2.83 2.83-1.41 1.41L20 21.41l-2.83 2.83-1.41-1.41L18.59 20l-2.83-2.83 1.41-1.41L20 18.59z"></path>
    </pattern>
  </defs>
  <path id="blob" d="M364,323.5Q335,397,266.5,368Q198,339,112,294.5Q26,250,110.5,202.5Q195,155,260,137.5Q325,120,359,185Q393,250,364,323.5Z" fill="url(#pattern)"></path>
</svg>