<svg viewBox="0 0 500 500" xmlns="http://www.w3.org/2000/svg" xmlns:xlink="http://www.w3.org/1999/xlink" width="100%" id="blobSvg">
  <defs>
    <pattern id="pattern" x="0" y="0" width="40" height="40" patternUnits="userSpaceOnUse" fill="#d1d8e0">
      <path d="M0 38.59l2.83-2.83 1.41 1.41L1.41 40H0v-1.41zM0 1.4l2.83 2.83 1.41-1.41L1.41 0H0v1.41zM38.59 40l-2.83-2.83 1.41-1.41L40 38.59V40h-1.41zM40 1.41l-2.83 2.83-1.41-1.41L38.59 0H40v1.41zM20 18.6l2.83-2.83 1.41 1.41L21.41 20l2.83 2.83-1.41 1.41L20 21.41l-2.83 2.83-1.41-1.41L18.59 20l-2.83-2.83 1.41-1.41L20 18.59z"></path>
    </pattern>
  </defs>
  <path id="blob" d="M400.5,304.5Q419,359,386,417.5Q353,476,286.5,466.5Q220,457,178,419Q136,381,101.5,342.5Q67,304,83,255Q99,206,116.5,161Q134,116,181.5,109.5Q229,103,280,87.5Q331,72,354.5,120Q378,168,380,209Q382,250,400.5,304.5Z" fill="url(#pattern)"></path>
</svg>