<svg xmlns="http://www.w3.org/2000/svg" version="1.1" xmlns:xlink="http://www.w3.org/1999/xlink" xmlns:svgjs="http://svgjs.com/svgjs" width="1920" height="1080" preserveAspectRatio="none" viewBox="0 0 1920 1080"><g mask="url(&quot;#SvgjsMask1029&quot;)" fill="none"><rect width="1920" height="1080" x="0" y="0" fill="rgba(0, 0, 0, 1)"></rect><path d="M960 1424.14C1180.32 1427.74 1342.09 1232.61 1484.18 1064.18 1611.3 913.42 1691.78 736.69 1705.72 540 1720.92 325.53 1700.96 101.74 1564.15-64.15 1415.43-244.48 1193.1-381.5 960-364.16 736.55-347.54 586.88-149.25 439.56 19.56 306.08 172.49 168.21 337.02 170.79 540 173.34 741.11 318.73 897.31 452.65 1047.35 598.48 1210.72 741.04 1420.57 960 1424.14" fill="rgba(77, 0, 0, 1)"></path><path d="M960 1112.09C1102.56 1114.42 1207.24 988.16 1299.17 879.17 1381.43 781.63 1433.51 667.27 1442.53 540 1452.36 401.22 1439.45 256.42 1350.92 149.08 1254.69 32.39 1110.83-56.27 960-45.05 815.42-34.29 718.57 94.02 623.25 203.25 536.87 302.2 447.66 408.66 449.34 540 450.99 670.13 545.06 771.2 631.72 868.28 726.07 973.99 818.32 1109.78 960 1112.09" fill="rgba(115, 7, 7, 1)"></path><path d="M960 800.04C1024.8 801.1 1072.38 743.71 1114.17 694.17 1151.56 649.83 1175.23 597.85 1179.33 540 1183.8 476.92 1177.93 411.1 1137.69 362.31 1093.95 309.27 1028.56 268.97 960 274.07 894.28 278.96 850.26 337.28 806.93 386.93 767.67 431.91 727.12 480.3 727.88 540 728.63 599.15 771.39 645.09 810.78 689.22 853.67 737.27 895.6 798.99 960 800.04" fill="rgba(173, 59, 12, 1)"></path></g><defs><mask id="SvgjsMask1029"><rect width="1920" height="1080" fill="#ffffff"></rect></mask></defs></svg>