<svg id="Layer_1" data-name="Layer 1" xmlns="http://www.w3.org/2000/svg" viewBox="0 0 122.88 111.82"><defs><style>.cls-1{fill-rule:evenodd;}</style></defs><title>productivity</title><path class="cls-1" d="M104.75,69a2.2,2.2,0,0,0-1.67-.39,2.24,2.24,0,0,0-1.44.94l-2,2.8a12.31,12.31,0,0,0-2.22-.74,23.26,23.26,0,0,0-2.29-.47l-.63-3.65a2.19,2.19,0,0,0-.89-1.44A2.09,2.09,0,0,0,92,65.72l-4.59.82a2.25,2.25,0,0,0-1.43.89,2.08,2.08,0,0,0-.39,1.67l.58,3.35A13.85,13.85,0,0,0,84,73.53a16.11,16.11,0,0,0-1.9,1.33L79,72.72a2.07,2.07,0,0,0-1.63-.39,2.26,2.26,0,0,0-1.44.93L73.31,77a2.12,2.12,0,0,0-.39,1.67,2.17,2.17,0,0,0,.93,1.44l2.8,2a13.14,13.14,0,0,0-.74,2.22,23.26,23.26,0,0,0-.47,2.29l-3.65.62a2.27,2.27,0,0,0-1.44.9A2.14,2.14,0,0,0,70,89.82l.81,4.59a2.3,2.3,0,0,0,.9,1.43,2.08,2.08,0,0,0,1.67.39l3.34-.58a14.88,14.88,0,0,0,1.09,2.1,22.85,22.85,0,0,0,1.32,1.94L77,102.76a2.05,2.05,0,0,0-.38,1.63,2.23,2.23,0,0,0,.93,1.44l3.81,2.68a2.13,2.13,0,0,0,1.67.35A2.43,2.43,0,0,0,84.5,108l2-2.84a14.1,14.1,0,0,0,2.22.74c.77.19,1.51.35,2.29.47l.62,3.65a2.23,2.23,0,0,0,.89,1.43,2.11,2.11,0,0,0,1.67.36l4.59-.82a2.31,2.31,0,0,0,1.44-.89,2.14,2.14,0,0,0,.39-1.68l-.58-3.34A13.37,13.37,0,0,0,102.1,104a20.86,20.86,0,0,0,2-1.32l3.07,2.14a2.11,2.11,0,0,0,1.67.39,2.21,2.21,0,0,0,1.44-.93l2.68-3.81a2.13,2.13,0,0,0,.35-1.67,2.37,2.37,0,0,0-.9-1.48l-2.83-1.94a14.45,14.45,0,0,0,.74-2.22c.19-.78.35-1.52.46-2.29l3.66-.63a2.19,2.19,0,0,0,1.43-.89,2.1,2.1,0,0,0,.35-1.67l-.81-4.59a2.31,2.31,0,0,0-.9-1.44,2.14,2.14,0,0,0-1.67-.39l-3.34.59a17.53,17.53,0,0,0-1.09-2.1,13.32,13.32,0,0,0-1.32-1.9l2.14-3.11a2.08,2.08,0,0,0,.39-1.64,2.27,2.27,0,0,0-.93-1.43L104.87,69l-.12,0ZM41.19,45.78a11.35,11.35,0,0,0-2.31-.61A12.06,12.06,0,0,0,36.49,45a13.26,13.26,0,0,0-2.16.28s-.07,0-.14,0A12.23,12.23,0,0,0,32,46.1a11.46,11.46,0,0,0-1.93,1.1,10.23,10.23,0,0,0-1.67,1.48A11.74,11.74,0,0,0,27,50.53a11.88,11.88,0,0,0-1,2.08,11.35,11.35,0,0,0-.61,2.31,12.06,12.06,0,0,0-.16,2.39,14.46,14.46,0,0,0,.28,2.16s0,.07,0,.14a12.23,12.23,0,0,0,.77,2.21,11.46,11.46,0,0,0,1.1,1.93,9.76,9.76,0,0,0,1.48,1.66,12,12,0,0,0,3.93,2.47,12.24,12.24,0,0,0,2.31.61,11.34,11.34,0,0,0,2.39.15,13.28,13.28,0,0,0,2.16-.27s.07,0,.14,0A12.75,12.75,0,0,0,42,67.56a11.46,11.46,0,0,0,1.93-1.1A10.72,10.72,0,0,0,45.56,65,12.21,12.21,0,0,0,48,61.05a11.53,11.53,0,0,0,.61-2.31,12.06,12.06,0,0,0,.16-2.39,14.29,14.29,0,0,0-.28-2.16s0-.07,0-.14a12.75,12.75,0,0,0-.76-2.21,12.24,12.24,0,0,0-1.11-1.93,10.23,10.23,0,0,0-1.48-1.67,12.21,12.21,0,0,0-1.85-1.42,11.88,11.88,0,0,0-2.08-1ZM63.94,31.62a5.72,5.72,0,0,1,1.58,1.48l4.12,5.7h0a5.79,5.79,0,0,1,.91,1.93,5.24,5.24,0,0,1,.08,2.16,5.6,5.6,0,0,1-.77,2,4.88,4.88,0,0,1-1.5,1.5L65,48.89c0,.1.06.21.08.31.17.59.3,1.21.43,1.79,0,0,0,.07,0,.1.14.59.23,1.23.32,1.91l0,.23,3.55.58a5.2,5.2,0,0,1,2,.76A5.41,5.41,0,0,1,73,56.05l0,0A5.38,5.38,0,0,1,73.91,58,5.91,5.91,0,0,1,74,60.15l-1.15,7a5.31,5.31,0,0,1-2.21,3.61,5.41,5.41,0,0,1-2,.9,5.73,5.73,0,0,1-2.15,0L62.38,71c0,.09-.13.21-.18.3-.32.55-.67,1.08-1,1.62s-.75,1.1-1.12,1.57l-.13.18L62,77.6l.08.11a5.4,5.4,0,0,1,.84,2,5.6,5.6,0,0,1-2.09,5.67l-.07.06-5.73,4.09a5.54,5.54,0,0,1-1.94.94,5.35,5.35,0,0,1-2.19.07,6.25,6.25,0,0,1-2.06-.77,5.16,5.16,0,0,1-1.54-1.51L45,84.86a1.21,1.21,0,0,1-.34.07c-.59.14-1.21.3-1.86.43s-1.26.22-1.9.31a.83.83,0,0,1-.27,0L40,89.21a5.2,5.2,0,0,1-.76,2,5.41,5.41,0,0,1-1.48,1.54l0,0a5.35,5.35,0,0,1-1.93.88,5.81,5.81,0,0,1-2.12.08l-7-1.15a5.31,5.31,0,0,1-3.61-2.21,5.41,5.41,0,0,1-.9-2,5.74,5.74,0,0,1,0-2.15l.67-4.13-.3-.19c-.54-.32-1.08-.67-1.62-1s-1.1-.74-1.57-1.12l-.18-.13L16.22,81.8l-.11.08a5.26,5.26,0,0,1-1.95.84,5.65,5.65,0,0,1-4.09-.67,5.47,5.47,0,0,1-1.59-1.42l-.06-.07-4.1-5.8a5.79,5.79,0,0,1-.91-1.93,5.24,5.24,0,0,1-.08-2.16,5.77,5.77,0,0,1,.76-2A6.3,6.3,0,0,1,5.6,67.1L9,64.71a.89.89,0,0,1-.08-.34c-.13-.59-.3-1.21-.42-1.86a18.38,18.38,0,0,1-.32-1.9l0-.27-3.51-.57a5.32,5.32,0,0,1-3.57-2.24l0,0a5.12,5.12,0,0,1-.87-1.92,5.86,5.86,0,0,1-.09-2.13l1.15-7a5.74,5.74,0,0,1,.73-2,6,6,0,0,1,1.48-1.58,5.41,5.41,0,0,1,2-.9,5.79,5.79,0,0,1,2.16,0l4.12.67.18-.3c.32-.54.67-1.08,1-1.62s.74-1.1,1.11-1.57l.13-.17L12.05,36a5.19,5.19,0,0,1-.9-2,5.43,5.43,0,0,1-.08-2.16,5,5,0,0,1,.77-2,5.58,5.58,0,0,1,1.48-1.58L19,24.1v0a5.76,5.76,0,0,1,1.93-.9,5.29,5.29,0,0,1,2.17-.08,5.72,5.72,0,0,1,2,.76,5.14,5.14,0,0,1,1.51,1.5l2.45,3.38a1.32,1.32,0,0,0,.28-.09c.59-.16,1.21-.29,1.86-.45s1.26-.23,1.91-.32a.59.59,0,0,1,.26,0L34,24.34a5,5,0,0,1,.76-2,5.16,5.16,0,0,1,1.47-1.55l0,0a5.17,5.17,0,0,1,1.93-.87,5.65,5.65,0,0,1,2.13-.08l7,1.14a6.11,6.11,0,0,1,2,.73,5.11,5.11,0,0,1,1.58,1.49,5.36,5.36,0,0,1,.9,2,5.59,5.59,0,0,1,0,2.16l-.68,4.12.3.18c.55.32,1.08.67,1.62,1s1.1.74,1.57,1.11l.18.13,2.92-2.07a5.08,5.08,0,0,1,2-.9,5.44,5.44,0,0,1,2.16-.08,5.38,5.38,0,0,1,2,.77v.06ZM37,36.59A20.19,20.19,0,1,1,16.84,56.77,20.17,20.17,0,0,1,37,36.59ZM94.52,52l22-21.78v9.13a3.19,3.19,0,0,0,6.38,0V22.51h0a3.17,3.17,0,0,0-3.38-3.17h-15.8a3.19,3.19,0,1,0,0,6.37h8.36L90,47.54l4.5,4.5ZM69.68,23.45,82,10.93v9.13a3.19,3.19,0,0,0,6.38,0V3.18h0A3.17,3.17,0,0,0,85,0H69.21a3.19,3.19,0,1,0,0,6.38h8.36L65.18,19l4.5,4.5ZM91.42,79.83a9.2,9.2,0,0,1,3.62.08,9.34,9.34,0,0,1,3.18,1.39,9.54,9.54,0,0,1,2.41,2.53,8.51,8.51,0,0,1,1.28,3.34,9.2,9.2,0,0,1-.08,3.62,9.36,9.36,0,0,1-1.4,3.18,9.07,9.07,0,0,1-2.52,2.41,8.68,8.68,0,0,1-3.34,1.29,9.09,9.09,0,0,1-6.8-1.48,9.24,9.24,0,0,1-2.41-2.53,8.68,8.68,0,0,1-1.29-3.34,9,9,0,0,1,4-9.21,8.45,8.45,0,0,1,3.34-1.28Z"/></svg>